<svg width="0" height="0" class="hidden">
  <symbol version="1.1" id="github-solid" xmlns="http://www.w3.org/2000/svg" xmlns:xlink="http://www.w3.org/1999/xlink" x="0px" y="0px" xml:space="preserve" viewBox="0 0 24 24">
    <path d="M12,38476c-6.6,0-12,5.4-12,12c0,5.3,3.4,9.8,8.2,11.4c0.6,0.1,0.8-0.3,0.8-0.6s0-1.2,0-2.2 c-3,0.6-3.8-0.7-4-1.4c-0.1-0.3-0.7-1.4-1.2-1.7c-0.4-0.2-1-0.8,0-0.8c0.9,0,1.6,0.9,1.8,1.2c1.1,1.8,2.8,1.3,3.5,1 c0.1-0.8,0.4-1.3,0.8-1.6c-2.7-0.3-5.5-1.3-5.5-5.9c0-1.3,0.5-2.4,1.2-3.2c-0.1-0.3-0.5-1.5,0.1-3.2c0,0,1-0.3,3.3,1.2 c1-0.3,2-0.4,3-0.4s2,0.1,3,0.4c2.3-1.6,3.3-1.2,3.3-1.2c0.7,1.6,0.2,2.9,0.1,3.2c0.8,0.8,1.2,1.9,1.2,3.2c0,4.6-2.8,5.6-5.5,5.9 c0.4,0.4,0.8,1.1,0.8,2.2c0,1.6,0,2.9,0,3.3c0,0.3,0.2,0.7,0.8,0.6c4.7-1.6,8.2-6.1,8.2-11.4C24,38481.4,18.6,38476,12,38476z"></path>
    <path fill="var(--color-0)" d="M12,0C5.4,0,0,5.4,0,12c0,5.3,3.4,9.8,8.2,11.4C8.8,23.5,9,23.1,9,22.8c0-0.3,0-1.2,0-2.2c-3,0.6-3.8-0.7-4-1.4 c-0.1-0.3-0.7-1.4-1.2-1.7c-0.4-0.2-1-0.8,0-0.8c0.9,0,1.6,0.9,1.8,1.2c1.1,1.8,2.8,1.3,3.5,1c0.1-0.8,0.4-1.3,0.8-1.6 C7.2,17,4.4,16,4.4,11.4c0-1.3,0.5-2.4,1.2-3.2C5.5,7.8,5.1,6.6,5.7,5c0,0,1-0.3,3.3,1.2c1-0.3,2-0.4,3-0.4s2,0.1,3,0.4 C17.3,4.6,18.3,5,18.3,5c0.7,1.7,0.2,2.9,0.1,3.2c0.8,0.8,1.2,1.9,1.2,3.2c0,4.6-2.8,5.6-5.5,5.9c0.4,0.4,0.8,1.1,0.8,2.2 c0,1.6,0,2.9,0,3.3c0,0.3,0.2,0.7,0.8,0.6C20.6,21.8,24,17.3,24,12C24,5.4,18.6,0,12,0z"></path>
  </symbol>
  <symbol version="1.1" id="gmail-solid" xmlns="http://www.w3.org/2000/svg" xmlns:xlink="http://www.w3.org/1999/xlink" x="0px" y="0px" xml:space="preserve" viewBox="0 0 24 24">
    <path fill="var(--color-0)" d="M5.5,11.7V21H1.6c-0.1,0-0.2,0-0.4,0C0.5,20.8,0,20.1,0,19.4V7.6L5.5,11.7z"/>
    <path fill="var(--color-1)" d="M24,7.6v11.7c0,0.8-0.5,1.4-1.3,1.6c-0.1,0-0.2,0-0.4,0h-3.8v-9.3L24,7.6z"/>
    <path fill="var(--color-2)" d="M24,5.4v2.2l-5.5,4.1V4.6L20,3.5c0.3-0.2,0.7-0.4,1-0.5c0.4,0,0.7,0,1,0C23.1,3.2,24,4.2,24,5.4z"/>
    <polygon fill="var(--color-3)" points="18.5,4.6 18.5,11.7 12,16.6 5.5,11.7 5.5,4.6 12,9.5 "/>
    <path fill="var(--color-4)" d="M5.5,4.6v7.1L0,7.6V5.4C0,4.2,0.9,3.2,2,3c0.3,0,0.6,0,0.9,0c0.4,0.1,0.7,0.2,1,0.5L5.5,4.6z"/>
  </symbol>
  <symbol version="1.1" id="facebook-solid" xmlns="http://www.w3.org/2000/svg" xmlns:xlink="http://www.w3.org/1999/xlink" x="0px" y="0px" xml:space="preserve" viewBox="0 0 24 24">
    <circle fill="var(--color-0)" cx="12" cy="12" r="12"></circle>
    <path fill="var(--color-1)" d="M16.7,15.5l0.5-3.5h-3.3V9.7c0-0.9,0.5-1.9,2-1.9h1.5v-3c0,0-1.4-0.2-2.7-0.2c-2.7,0-4.5,1.7-4.5,4.7V12h-3v3.5 h3v8.4C10.7,24,11.4,24,12,24s1.3-0.1,1.9-0.1v-8.4H16.7z"></path>
  </symbol>
  <symbol version="1.1" id="twitter-solid" xmlns="http://www.w3.org/2000/svg" xmlns:xlink="http://www.w3.org/1999/xlink" x="0px" y="0px" xml:space="preserve" viewBox="0 0 24 24">
    <path fill="var(--color-0)" d="M21.5,8.1c0,0.2,0,0.4,0,0.6c0,6.5-5,14-14,14l0,0c-2.7,0-5.3-0.8-7.5-2.2c0.4,0,0.8,0.1,1.2,0.1 c2.2,0,4.4-0.7,6.1-2.1c-2.1,0-4-1.4-4.6-3.4c0.7,0.1,1.5,0.1,2.2-0.1C2.6,14.5,1,12.5,1,10.2v-0.1c0.7,0.4,1.5,0.6,2.2,0.6 C1,9.3,0.4,6.4,1.7,4.1C4.2,7.2,7.9,9,11.8,9.2c-0.4-1.7,0.1-3.5,1.4-4.7c2-1.9,5.1-1.8,7,0.2c1.1-0.2,2.2-0.6,3.1-1.2 c-0.4,1.1-1.1,2.1-2.2,2.7c1-0.1,1.9-0.4,2.8-0.8C23.3,6.5,22.5,7.4,21.5,8.1L21.5,8.1z"/>
  </symbol>
  <symbol version="1.1" id="linkedin-solid" xmlns="http://www.w3.org/2000/svg" xmlns:xlink="http://www.w3.org/1999/xlink" x="0px" y="0px" xml:space="preserve" viewBox="0 0 24 24">
    <path fill="var(--color-0)" d="M2.7,24h18.7c1.5,0,2.7-1.2,2.7-2.7V2.7C24,1.2,22.8,0,21.3,0H2.7C1.2,0,0,1.2,0,2.7v18.7 C0,22.8,1.2,24,2.7,24z"/>
	  <path fill="var(--color-1)" d="M20.7,20.7h-3.6v-6.1c0-1.7-0.6-2.6-1.9-2.6c-1.4,0-2.2,1-2.2,2.6v6.1H9.5V9.1H13v1.6c0,0,1-1.9,3.5-1.9 c2.5,0,4.2,1.5,4.2,4.6V20.7z M5.4,7.6c-1.2,0-2.1-1-2.1-2.1s0.9-2.1,2.1-2.1s2.1,1,2.1,2.1S6.6,7.6,5.4,7.6z M3.7,20.7h3.6V9.1 H3.7V20.7z"/>
  </symbol>
  <symbol version="1.1" id="pinterest-solid" xmlns="http://www.w3.org/2000/svg" xmlns:xlink="http://www.w3.org/1999/xlink" x="0px" y="0px" xml:space="preserve" viewBox="0 0 24 24">
		<path fill="var(--color-0)" class="st0" d="M12,0.9C5.9,0.9,0.9,5.9,0.9,12c0,4.7,2.9,8.7,7,10.3c-0.1-0.9-0.2-2.2,0-3.2c0.2-0.9,1.3-5.5,1.3-5.5 S8.9,13,8.9,12c0-1.6,0.9-2.7,2-2.7c0.9,0,1.4,0.7,1.4,1.6c0,0.9-0.6,2.4-0.9,3.7c-0.3,1.1,0.6,2,1.7,2c2,0,3.5-2.1,3.5-5.1 c0-2.7-1.9-4.5-4.6-4.5c-3.2,0-5,2.4-5,4.8c0,0.9,0.4,2,0.8,2.5c0.1,0.1,0.1,0.2,0.1,0.3c-0.1,0.4-0.3,1.1-0.3,1.3 c-0.1,0.2-0.2,0.3-0.4,0.2c-1.4-0.7-2.3-2.7-2.3-4.3C4.9,8.2,7.5,5,12.3,5c3.9,0,6.8,2.8,6.8,6.4c0,3.8-2.4,6.9-5.8,6.9 c-1.1,0-2.2-0.6-2.6-1.3c0,0-0.5,2.1-0.7,2.6c-0.3,1-0.9,2.2-1.4,2.9c1,0.3,2.1,0.5,3.3,0.5c6.1,0,11.1-5,11.1-11.1 C23.1,5.9,18.1,0.9,12,0.9z"/>
  </symbol>
</svg>