<?xml version="1.0" encoding="utf-8"?>
<!-- Generator: Adobe Illustrator 24.1.2, SVG Export Plug-In . SVG Version: 6.00 Build 0)  -->
<svg version="1.1" id="x-0" xmlns="http://www.w3.org/2000/svg" xmlns:xlink="http://www.w3.org/1999/xlink" x="0px" y="0px"
	 viewBox="0 0 120 120" style="enable-background:new 0 0 120 120;" xml:space="preserve">
<style type="text/css">
	.st0{fill:#111111;}
	.st1{opacity:0.5;fill:#111111;enable-background:new    ;}
	.st2{fill:#FFFFFF;}
	.st3{display:none;fill:none;}
</style>
<g id="tight-bounds" transform="matrix(1,0,0,1,122.24000000000001,111.05279306586695)">
	<g>
		<g transform="matrix(1,0,0,1,139.9291144932844,0)">
			<g id="icon-0">
				<g>
					<rect x="-252.1" y="-106.3" class="st0" width="105.2" height="105.2"/>
					<rect x="-257.4" y="-101" class="st1" width="105.2" height="105.2"/>
				</g>
				<g transform="matrix(1,0,0,1,14.993192538778118,23.14830865135101)">
					<g>
						<path class="st2" d="M-248.8-85.8v17.7h15.7v-6.5l8.6-1v7.5h2.6v-29.7L-248.8-85.8z M-240.5-78.5l-5.7,1.2v-6.5l5.7-2.1V-78.5
							z M-232.5-80.3l-5.7,1.2v-7.8l5.7-2.1V-80.3z M-224.5-82l-5.7,1.2v-9l5.7-2.1V-82z"/>
						<path class="st2" d="M-208.1-58.3c-4.8,3.9-10.9,6.3-17.6,6.3c-15.4,0-27.9-12.5-27.9-27.9s12.5-27.9,27.9-27.9
							c8.3,0,15.7,3.6,20.8,9.4c0.8-1,1.7-1.9,2.6-2.7c-5.8-6.4-14.2-10.4-23.5-10.4c-17.4,0-31.6,14.2-31.6,31.6
							c0,17.4,14.2,31.6,31.6,31.6c6.5,0,12.6-2,17.6-5.4L-208.1-58.3L-208.1-58.3z"/>
						<path class="st2" d="M-207-76.2c-0.8-1.7-1.3-3.4-1.6-5.3c-2-0.9-3.5-2.9-3.5-5.3c0-1.1,0.3-2.1,0.8-2.9l-9.2-8.2v29.7h13.5
							V-76.2z"/>
						<path class="st2" d="M-180.6-66.9h-0.3h-18.2h-0.3c-2.7,0-4.9,2.2-4.9,4.9v14.9c0,2.7,2.2,4.9,5,4.9h4.6h9.7h4.6
							c2.7,0,4.9-2.2,4.9-4.9V-62C-175.7-64.7-177.9-66.9-180.6-66.9z"/>
						<path class="st2" d="M-205-82.6c0.8,7.5,7.2,13.4,15,13.4c7.8,0,14.2-5.9,15-13.4H-205z"/>
						<path class="st2" d="M-173.6-88.7h-1c-0.8-5.7-4.8-10.4-10-12.3v5.2c0,0.7-0.6,1.3-1.3,1.3s-1.3-0.6-1.3-1.3v-5.9
							c-0.5-0.1-1-0.2-1.5-0.2v6.1c0,0.7-0.6,1.3-1.3,1.3c-0.7,0-1.3-0.6-1.3-1.3v-6.1c-0.5,0-1,0.1-1.5,0.2v5.9
							c0,0.7-0.6,1.3-1.3,1.3c-0.7,0-1.3-0.6-1.3-1.3v-5.1c-5.1,2-8.9,6.6-9.7,12.2h-1.3c-1.1,0-1.9,0.9-1.9,1.9s0.9,1.9,1.9,1.9
							h32.8c1.1,0,1.9-0.9,1.9-1.9C-171.7-87.8-172.6-88.7-173.6-88.7z"/>
					</g>
				</g>
			</g>
		</g>
	</g>
	<rect x="0" y="-400" class="st3" width="395.5" height="177.9"/>
</g>
</svg>
