<?xml version="1.0" encoding="utf-8"?>
<!-- Generator: Adobe Illustrator 24.1.2, SVG Export Plug-In . SVG Version: 6.00 Build 0)  -->
<svg version="1.1" id="Layer_1" xmlns="http://www.w3.org/2000/svg" xmlns:xlink="http://www.w3.org/1999/xlink" x="0px" y="0px"
	 viewBox="0 0 80 80" style="enable-background:new 0 0 80 80;" xml:space="preserve">
<style type="text/css">
	.st0{clip-path:url(#SVGID_2_);}
	.st1{fill:#FFFFFF;}
	.st2{font-family:'Tahoma-Bold';}
	.st3{font-size:11px;}
</style>
<g>
	<g>
		<g>
			<g>
				<defs>
					<rect id="SVGID_1_" x="-1.6" y="11.1" width="85.6" height="51.9"/>
				</defs>
				<clipPath id="SVGID_2_">
					<use xlink:href="#SVGID_1_"  style="overflow:visible;"/>
				</clipPath>
				<g class="st0">
					<path class="st1" d="M53.6,36.7l1.6,3.6c0.3,0.7,1.1,1,1.8,0.7s1-1,0.8-1.7l-1.6-3.6L53.6,36.7z"/>
					<path class="st1" d="M54.7,39.1l2.6-1L54.7,39.1z"/>
					<path class="st1" d="M50.2,29.1l3.6,1.4L50.2,29.1z"/>
					<path class="st1" d="M52.2,21.8c0,1.9-1.7,3.5-3.7,3.5s-3.7-1.6-3.7-3.5s1.7-3.5,3.7-3.5C50.5,18.4,52.2,19.9,52.2,21.8z"/>
					<path class="st1" d="M50.4,21.8c0,1-0.8,1.7-1.9,1.7c-1,0-1.9-0.8-1.9-1.7c0-1,0.8-1.7,1.9-1.7C49.5,20.1,50.4,20.9,50.4,21.8z
						"/>
					<path class="st1" d="M45.9,24.3l-5.1,11.4l-1.3,5.1l0.9,0.3l3-4.5l0.7-1.6c-0.6-1.3,0.1-2.7,1.4-3.2l2.9-6.6
						C47.5,25.3,46.6,24.9,45.9,24.3z"/>
					<path class="st1" d="M51.1,24.3c-0.7,0.6-1.6,1-2.6,1l4.4,9.8l2.6-1L51.1,24.3z"/>
					<path class="st1" d="M49.9,16.6v-3.9c0-0.7-0.6-1.3-1.4-1.3c-0.8,0-1.4,0.6-1.4,1.3v3.9H49.9z"/>
					<path class="st1" d="M48.5,18.4c0.2,0,0.5,0,0.7,0.1v-1.8h-1.4v1.8C48,18.4,48.3,18.4,48.5,18.4z"/>
					<path class="st1" d="M29.2,42.7h-4.6V11.4h4.6c1,0,1.8,0.8,1.8,1.7v27.8l0,0C31.1,41.9,30.2,42.7,29.2,42.7z"/>
					<path class="st1" d="M29,14c0.4,0,0.7-0.3,0.7-0.7s-0.3-0.7-0.7-0.7c-0.4,0-0.7,0.3-0.7,0.7S28.6,14,29,14z"/>
					<path class="st1" d="M34.3,29.9c0,0.4,0.3,0.7,0.7,0.7s0.7-0.3,0.7-0.7c0,0.4,0.3,0.7,0.7,0.7s0.7-0.3,0.7-0.7
						c0,0.4-0.3,0.7-0.7,0.7s-0.7-0.3-0.7-0.7c0,0.4-0.3,0.7-0.7,0.7C34.6,30.5,34.3,30.2,34.3,29.9z"/>
					<path class="st1" d="M35.2,11.4c-0.5,0-0.9,0.4-0.9,0.9l0,0v18.2l1.4,5.2l1.4-5.2V12.3l0,0c0-0.5-0.4-0.9-0.9-0.9L35.2,11.4z"
						/>
				</g>
			</g>
		</g>
	</g>
</g>
<text transform="matrix(1 0 0 1 10.2797 63.0908)" class="st1 st2 st3">ARCHITECT</text>
</svg>
